<mxfile host="app.diagrams.net" modified="2021-12-29T14:06:00.378Z" agent="5.0 (Windows NT 10.0; Win64; x64) AppleWebKit/537.36 (KHTML, like Gecko) Chrome/96.0.4664.110 Safari/537.36 Edg/96.0.1054.62" etag="gebxIzXVI6csK0hyWWMI" version="16.1.0" type="github">
  <diagram id="TM0S33WNv4KrTRSGpWoD" name="Page-1">
    <mxGraphModel dx="942" dy="653" grid="1" gridSize="10" guides="1" tooltips="1" connect="1" arrows="1" fold="1" page="1" pageScale="1" pageWidth="827" pageHeight="1169" math="0" shadow="0">
      <root>
        <mxCell id="0" />
        <mxCell id="1" parent="0" />
        <mxCell id="Ag9-fdOosAPF-JrcCkw--1" value="CC3200 LanuchPad" style="rounded=1;whiteSpace=wrap;html=1;" vertex="1" parent="1">
          <mxGeometry x="260" y="120" width="380" height="190" as="geometry" />
        </mxCell>
      </root>
    </mxGraphModel>
  </diagram>
</mxfile>
